# xmcd
#
# Track frame offsets:
#	150
#	28619
#	47196
#	66357
#	90607
#	120339
#	144921
#	167538
#	193266
#	217722
#
# Disc length: 3226 seconds
#
# Revision: 0
# Processed by: cddbd v1.5.2PL0 Copyright (c) Steve Scherf et al.
# Submitted via: EasyCDDAExtractor 11.0.2.1
#
DISCID=830c980a
DTITLE=In Memory - She's Plastic
DYEAR=2005
DGENRE=Hard Rock
TTITLE0=Stronger Sun
TTITLE1=Waiting
TTITLE2=Thousands Stories
TTITLE3=Slightly Sexy
TTITLE4=Break Up
TTITLE5=Plastic Moon
TTITLE6=She's a Vessel
TTITLE7=Keep Me Free
TTITLE8=Coloured Dreaming
TTITLE9=Slightly Sexy (Czech Version)
EXTD=
EXTT0=
EXTT1=
EXTT2=
EXTT3=
EXTT4=
EXTT5=
EXTT6=
EXTT7=
EXTT8=
EXTT9=
PLAYORDER=
